<?xml version="1.0" encoding="utf-8" standalone="no"?>
<!DOCTYPE svg PUBLIC "-//W3C//DTD SVG 1.1//EN"
  "http://www.w3.org/Graphics/SVG/1.1/DTD/svg11.dtd">
<svg xmlns:xlink="http://www.w3.org/1999/xlink" width="864pt" height="720pt" viewBox="0 0 864 720" xmlns="http://www.w3.org/2000/svg" version="1.1">
 <metadata>
  <rdf:RDF xmlns:dc="http://purl.org/dc/elements/1.1/" xmlns:cc="http://creativecommons.org/ns#" xmlns:rdf="http://www.w3.org/1999/02/22-rdf-syntax-ns#">
   <cc:Work>
    <dc:type rdf:resource="http://purl.org/dc/dcmitype/StillImage"/>
    <dc:date>2026-10-03T20:20:13.535116</dc:date>
    <dc:format>image/svg+xml</dc:format>
    <dc:creator>
     <cc:Agent>
      <dc:title>Matplotlib v3.11.2, https://matplotlib.org/</dc:title>
     </cc:Agent>
    </dc:creator>
   </cc:Work>
  </rdf:RDF>
 </metadata>
 <defs>
  <style type="text/css">*{stroke-linejoin: round; stroke-linecap: butt}</style>
 </defs>
 <g id="figure_1">
  <g id="patch_1">
   <path d="M 0 720 
L 864 720 
L 864 0 
L 0 0 
z
" style="fill: #fbfbf8"/>
  </g>
  <g id="axes_1">
   <g id="patch_2">
    <path d="M 120.96 468 
L 786.24 468 
L 786.24 151.2 
L 120.96 151.2 
z
" style="fill: #fbfbf8"/>
   </g>
   <g id="matplotlib.axis_1">
    <g id="xtick_1">
     <g id="line2d_1"/>
     <g id="text_1">
      <text style="font-size: 11px; font-family: 'DejaVu Sans', 'Arial Unicode MS'; text-anchor: middle; fill: #566670" x="308.973913" y="484.357422" transform="rotate(-0 308.973913 484.357422)">2015</text>
     </g>
    </g>
    <g id="xtick_2">
     <g id="line2d_2"/>
     <g id="text_2">
      <text style="font-size: 11px; font-family: 'DejaVu Sans', 'Arial Unicode MS'; text-anchor: middle; fill: #566670" x="598.226087" y="484.357422" transform="rotate(-0 598.226087 484.357422)">2016</text>
     </g>
    </g>
    <g id="text_3">
     <text style="font-size: 11px; font-family: 'DejaVu Sans', 'Arial Unicode MS'; text-anchor: middle; fill: #566670" x="453.6" y="499.358281" transform="rotate(-0 453.6 499.358281)">Observation year; missing years remain gaps</text>
    </g>
   </g>
   <g id="matplotlib.axis_2">
    <g id="ytick_1">
     <g id="line2d_3">
      <path d="M 120.96 468 
L 786.24 468 
" clip-path="url(#pb1963dbc5a)" style="fill: none; stroke: #dce2e4; stroke-width: 0.7; stroke-linecap: square"/>
     </g>
     <g id="line2d_4"/>
     <g id="text_4">
      <text style="font-size: 12px; font-family: 'DejaVu Sans', 'Arial Unicode MS'; text-anchor: end; fill: #566670" x="112.96" y="472.558594" transform="rotate(-0 112.96 472.558594)">0</text>
     </g>
    </g>
    <g id="ytick_2">
     <g id="line2d_5">
      <path d="M 120.96 392.632297 
L 786.24 392.632297 
" clip-path="url(#pb1963dbc5a)" style="fill: none; stroke: #dce2e4; stroke-width: 0.7; stroke-linecap: square"/>
     </g>
     <g id="line2d_6"/>
     <g id="text_5">
      <text style="font-size: 12px; font-family: 'DejaVu Sans', 'Arial Unicode MS'; text-anchor: end; fill: #566670" x="112.96" y="397.190891" transform="rotate(-0 112.96 397.190891)">20,000</text>
     </g>
    </g>
    <g id="ytick_3">
     <g id="line2d_7">
      <path d="M 120.96 317.264594 
L 786.24 317.264594 
" clip-path="url(#pb1963dbc5a)" style="fill: none; stroke: #dce2e4; stroke-width: 0.7; stroke-linecap: square"/>
     </g>
     <g id="line2d_8"/>
     <g id="text_6">
      <text style="font-size: 12px; font-family: 'DejaVu Sans', 'Arial Unicode MS'; text-anchor: end; fill: #566670" x="112.96" y="321.823188" transform="rotate(-0 112.96 321.823188)">40,000</text>
     </g>
    </g>
    <g id="ytick_4">
     <g id="line2d_9">
      <path d="M 120.96 241.896891 
L 786.24 241.896891 
" clip-path="url(#pb1963dbc5a)" style="fill: none; stroke: #dce2e4; stroke-width: 0.7; stroke-linecap: square"/>
     </g>
     <g id="line2d_10"/>
     <g id="text_7">
      <text style="font-size: 12px; font-family: 'DejaVu Sans', 'Arial Unicode MS'; text-anchor: end; fill: #566670" x="112.96" y="246.455485" transform="rotate(-0 112.96 246.455485)">60,000</text>
     </g>
    </g>
    <g id="ytick_5">
     <g id="line2d_11">
      <path d="M 120.96 166.529188 
L 786.24 166.529188 
" clip-path="url(#pb1963dbc5a)" style="fill: none; stroke: #dce2e4; stroke-width: 0.7; stroke-linecap: square"/>
     </g>
     <g id="line2d_12"/>
     <g id="text_8">
      <text style="font-size: 12px; font-family: 'DejaVu Sans', 'Arial Unicode MS'; text-anchor: end; fill: #566670" x="112.96" y="171.087782" transform="rotate(-0 112.96 171.087782)">80,000</text>
     </g>
    </g>
    <g id="text_9">
     <text style="font-size: 11px; font-family: 'DejaVu Sans', 'Arial Unicode MS'; text-anchor: middle; fill: #566670" x="64.328672" y="309.6" transform="rotate(-90 64.328672 309.6)">People</text>
    </g>
   </g>
   <g id="patch_3">
    <path d="M 120.96 468 
L 786.24 468 
" style="fill: none; stroke: #dce2e4; stroke-width: 0.8; stroke-linejoin: miter; stroke-linecap: square"/>
   </g>
   <g id="text_10">
    <text style="font-size: 11px; font-family: 'DejaVu Sans', 'Arial Unicode MS'; text-anchor: middle; fill: #23313a" x="308.973913" y="229.780071" transform="rotate(-0 308.973913 229.780071)">60,031</text>
   </g>
   <g id="text_11">
    <text style="font-size: 11px; font-family: 'DejaVu Sans', 'Arial Unicode MS'; text-anchor: middle; fill: #23313a" x="598.226087" y="208.5" transform="rotate(-0 598.226087 208.5)">65,678</text>
   </g>
   <g id="text_12">
    <text style="font-weight: 700; font-size: 16px; font-family: 'DejaVu Sans', 'Arial Unicode MS'; text-anchor: start; fill: #23313a" x="120.96" y="134.2" transform="rotate(-0 120.96 134.2)">Earlier ESA mapping-project reported employment</text>
   </g>
   <g id="PathCollection_1">
    <defs>
     <path id="m552e795b69" d="M 0 3.937004 
C 1.044106 3.937004 2.045588 3.522176 2.783882 2.783882 
C 3.522176 2.045588 3.937004 1.044106 3.937004 0 
C 3.937004 -1.044106 3.522176 -2.045588 2.783882 -2.783882 
C 2.045588 -3.522176 1.044106 -3.937004 0 -3.937004 
C -1.044106 -3.937004 -2.045588 -3.522176 -2.783882 -2.783882 
C -3.522176 -2.045588 -3.937004 -1.044106 -3.937004 0 
C -3.937004 1.044106 -3.522176 2.045588 -2.783882 2.783882 
C -2.045588 3.522176 -1.044106 3.937004 0 3.937004 
z
" style="stroke: #245b80"/>
    </defs>
    <g clip-path="url(#pb1963dbc5a)">
     <use xlink:href="#m552e795b69" x="308.973913" y="241.780071" style="fill: #245b80; stroke: #245b80"/>
    </g>
   </g>
   <g id="PathCollection_2">
    <defs>
     <path id="m7fd38837c2" d="M 0 3.937004 
C 1.044106 3.937004 2.045588 3.522176 2.783882 2.783882 
C 3.522176 2.045588 3.937004 1.044106 3.937004 0 
C 3.937004 -1.044106 3.522176 -2.045588 2.783882 -2.783882 
C 2.045588 -3.522176 1.044106 -3.937004 0 -3.937004 
C -1.044106 -3.937004 -2.045588 -3.522176 -2.783882 -2.783882 
C -3.522176 -2.045588 -3.937004 -1.044106 -3.937004 0 
C -3.937004 1.044106 -3.522176 2.045588 -2.783882 2.783882 
C -2.045588 3.522176 -1.044106 3.937004 0 3.937004 
z
" style="stroke: #b16837"/>
    </defs>
    <g clip-path="url(#pb1963dbc5a)">
     <use xlink:href="#m7fd38837c2" x="598.226087" y="220.5" style="fill: #b16837; stroke: #b16837"/>
    </g>
   </g>
  </g>
  <g id="text_13">
   <text style="font-weight: 700; font-size: 27px; font-family: 'DejaVu Sans', 'Arial Unicode MS'; text-anchor: start; fill: #23313a" x="64.8" y="41.76" transform="rotate(-0 64.8 41.76)">United States</text>
  </g>
  <g id="text_14">
   <text style="font-size: 15px; font-family: 'DejaVu Sans', 'Arial Unicode MS'; text-anchor: start; fill: #566670" x="64.8" y="75.6" transform="rotate(-0 64.8 75.6)">Employment evidence</text>
  </g>
  <g id="text_15">
   <text style="font-size: 10.4px; font-family: 'DejaVu Sans', 'Arial Unicode MS'; fill: #23313a" transform="translate(64.8 553.74975)">Orange point: source or methodology break. company panel. 2015 table excludes 151 locations without founding-year data;</text>
   <text style="font-size: 10.4px; font-family: 'DejaVu Sans', 'Arial Unicode MS'; fill: #23313a" transform="translate(64.8 568.30975)">2016 covers wider reporting universe. No comparable link to newer TEConomy series. Observed: 2015 ESA mapping observation;</text>
   <text style="font-size: 10.4px; font-family: 'DejaVu Sans', 'Arial Unicode MS'; fill: #23313a" transform="translate(64.8 582.86975)">2016 ESA mapping observation. Sources: ESA / Stephen Siwek (edition 2017).</text>
  </g>
  <g id="text_16">
   <text style="font-size: 9px; font-family: 'DejaVu Sans', 'Arial Unicode MS'; text-anchor: start; fill: #566670" x="64.8" y="691.2" transform="rotate(-0 64.8 691.2)">GAME EMPLOYMENT  ·  SOURCES AVAILABLE BY 9 SEP 2026</text>
  </g>
  <g id="text_17">
   <text style="font-size: 9px; font-family: 'DejaVu Sans', 'Arial Unicode MS'; text-anchor: end; fill: #566670" x="799.2" y="691.2" transform="rotate(-0 799.2 691.2)">us-employment-05</text>
  </g>
 </g>
 <defs>
  <clipPath id="pb1963dbc5a">
   <rect x="120.96" y="151.2" width="665.28" height="316.8"/>
  </clipPath>
 </defs>
</svg>
